<svg width="15" height="15" viewBox="0 0 15 15" fill="none" xmlns="http://www.w3.org/2000/svg">
<path d="M12.7466 0.455905C12.3558 0.0659803 11.7229 0.066528 11.3328 0.457127L2.23138 9.56919C1.93421 9.86619 1.70734 10.2339 1.57526 10.6326L1.56668 10.6585L0.75 14.25L4.35143 13.4437L4.37817 13.4348C4.77703 13.3029 5.14494 13.0761 5.44236 12.7788L14.546 3.66456C14.9364 3.27366 14.9359 2.64019 14.5447 2.24996L12.7466 0.455905ZM2.74712 12.6412L2.36522 12.2591L2.64101 11.0463L3.96291 12.369L2.74712 12.6412ZM4.90734 11.7104L3.30064 10.1027L12.0405 1.35267L13.6495 2.95804L4.90734 11.7104Z" fill="#999999"/>
</svg>
