<svg width="14" height="8" viewBox="0 0 14 8" fill="none" xmlns="http://www.w3.org/2000/svg">
<path d="M7 0.143433C3.227 0.143433 0.25 4.00043 0.25 4.00043C0.25 4.00043 3.227 7.85793 7 7.85793C9.885 7.85793 13.75 4.00043 13.75 4.00043C13.75 4.00043 9.885 0.143433 7 0.143433ZM7 6.40343C5.675 6.40343 4.5965 5.32543 4.5965 4.00043C4.5965 2.67543 5.675 1.59693 7 1.59693C8.325 1.59693 9.4035 2.67543 9.4035 4.00043C9.4035 5.32543 8.325 6.40393 7 6.40393V6.40343ZM7 2.59743C6.81356 2.59391 6.62829 2.62759 6.45502 2.69651C6.28174 2.76542 6.12395 2.86819 5.99085 2.99879C5.85776 3.1294 5.75203 3.28523 5.67986 3.45717C5.60769 3.62911 5.57052 3.81371 5.57052 4.00018C5.57052 4.18666 5.60769 4.37126 5.67986 4.5432C5.75203 4.71514 5.85776 4.87097 5.99085 5.00157C6.12395 5.13218 6.28174 5.23494 6.45502 5.30386C6.62829 5.37277 6.81356 5.40645 7 5.40293C7.36745 5.396 7.7175 5.24516 7.97491 4.98285C8.23231 4.72053 8.37652 4.36769 8.37652 4.00018C8.37652 3.63267 8.23231 3.27983 7.97491 3.01752C7.7175 2.75521 7.36745 2.60437 7 2.59743Z" fill="#424242"/>
</svg>
